<?xml version="1.0" encoding="UTF-8" standalone="no"?>
<!DOCTYPE svg PUBLIC "-//W3C//DTD SVG 20010904//EN"
              "http://www.w3.org/TR/2001/REC-SVG-20010904/DTD/svg10.dtd">

<svg xmlns="http://www.w3.org/2000/svg"
     width="4.55in" height="6.82667in"
     viewBox="0 0 1365 2048">
  <path id="leg"
        fill="none" stroke="black" stroke-width="1"
        d="M 456.00,1500.67
           C 456.00,1500.67 424.00,1475.50 422.00,1469.50
             424.00,1459.50 458.50,1397.50 458.50,1397.50
             458.50,1397.50 472.00,1329.27 472.00,1329.27
             472.00,1329.27 483.09,1282.91 483.09,1282.91
             483.09,1282.91 492.50,1245.00 492.50,1245.00
             492.50,1245.00 482.73,1212.91 482.73,1212.91
             477.40,1179.99 478.65,1181.56 479.45,1160.91
             483.45,1149.64 481.01,1141.73 480.67,1122.00
             483.48,1108.29 502.03,1068.42 518.00,1056.50
             533.00,1043.00 567.33,1018.00 616.67,1032.00
             654.00,1044.67 695.33,1081.33 695.33,1082.00
             695.33,1082.67 861.33,1234.00 861.33,1235.33M 689.00,1274.00
           C 689.00,1274.00 689.33,1343.33 689.33,1343.33
             689.33,1343.33 667.33,1460.67 667.33,1460.67
             667.33,1460.67 664.50,1479.50 664.50,1479.50
             664.50,1479.50 662.00,1494.00 662.00,1494.00
             662.00,1494.00 647.00,1540.00 647.00,1540.00
             647.00,1540.00 632.50,1575.00 632.50,1575.00
             632.50,1575.00 621.00,1609.00 621.00,1609.00
             621.00,1609.00 613.00,1648.00 613.00,1648.00" />
</svg>
