<?xml version="1.0" encoding="UTF-8" standalone="no"?>
<!DOCTYPE svg PUBLIC "-//W3C//DTD SVG 20010904//EN"
              "http://www.w3.org/TR/2001/REC-SVG-20010904/DTD/svg10.dtd">

<svg xmlns="http://www.w3.org/2000/svg"
     width="4.55in" height="6.82667in"
     viewBox="0 0 1365 2048">
  <path id="outline"
        fill="none" stroke="black" stroke-width="1"
        d="M 326.00,1835.33
           C 326.67,1834.67 349.33,1820.67 349.33,1820.67
             349.33,1820.67 371.33,1803.33 371.33,1803.33
             371.33,1803.33 405.33,1778.00 405.33,1778.00
             405.33,1778.00 428.67,1739.33 428.67,1739.33
             428.67,1739.33 439.33,1726.67 439.33,1726.67
             439.33,1726.67 448.00,1704.00 448.00,1704.00
             448.00,1704.00 465.33,1691.33 465.33,1691.33
             465.33,1691.33 466.67,1671.33 466.67,1671.33
             466.67,1671.33 486.00,1670.67 486.00,1670.67
             486.00,1670.67 492.67,1652.67 492.67,1652.67
             492.67,1652.67 492.00,1639.33 492.00,1639.33
             492.00,1639.33 496.67,1631.33 496.67,1631.33
             496.67,1631.33 499.33,1619.33 499.33,1619.33
             499.33,1619.33 504.67,1589.33 504.67,1589.33
             504.67,1589.33 508.67,1588.00 508.67,1588.00
             508.67,1588.00 514.00,1548.67 514.00,1548.67
             514.00,1548.67 456.67,1502.00 456.67,1502.00
             456.67,1502.00 430.67,1569.33 430.00,1569.33
             429.33,1569.33 416.00,1586.67 416.00,1586.67
             416.00,1586.67 362.67,1566.00 363.33,1566.00
             364.00,1566.00 361.33,1562.00 361.33,1562.00
             361.33,1562.00 276.67,1567.33 276.67,1567.33
             276.67,1567.33 156.00,1551.33 156.00,1551.33
             156.00,1551.33 48.67,1482.67 48.67,1482.67
             48.67,1482.67 66.00,1400.00 66.00,1400.00
             66.00,1400.00 135.33,1334.00 135.33,1334.00
             135.33,1334.00 210.67,1287.33 210.67,1287.33
             210.67,1287.33 302.67,1244.00 302.67,1243.33
             302.67,1242.67 373.33,1218.00 373.33,1218.00
             373.33,1218.00 405.33,1209.33 405.33,1209.33
             405.33,1209.33 406.67,1197.33 406.67,1197.33
             406.67,1197.33 453.33,1114.00 453.33,1114.00
             453.33,1114.00 468.00,1094.67 468.00,1094.67
             468.00,1094.67 508.00,1013.33 508.00,1013.33
             508.00,1013.33 524.00,998.67 524.00,998.00
             524.00,997.33 589.33,883.33 589.33,883.33
             589.33,883.33 586.00,870.67 586.00,870.67
             586.00,870.67 537.33,824.00 537.33,824.00
             537.33,824.00 518.00,798.67 518.00,798.67
             518.00,798.67 502.00,784.67 502.00,784.67
             502.00,784.67 466.67,745.33 466.67,745.33
             466.67,745.33 410.00,648.67 410.67,648.67
             411.33,648.67 338.67,498.67 338.67,498.67
             338.67,498.67 335.33,477.33 335.33,477.33
             335.33,477.33 326.75,461.75 326.75,461.75
             326.75,461.75 321.75,438.67 321.75,438.00
             321.75,437.33 320.64,397.73 320.64,397.73
             318.45,396.73 307.73,385.18 305.09,377.82
             302.00,366.91 302.40,352.06 304.00,351.33
             309.95,343.59 310.52,342.03 314.92,337.75
             316.00,327.25 321.50,321.25 332.00,316.75
             330.01,313.26 334.07,298.77 342.75,295.50
             347.25,294.75 360.42,294.00 361.75,290.75
             359.42,272.00 346.22,255.56 341.75,242.00
             339.25,227.25 354.75,226.25 360.83,232.08
             370.00,240.25 386.00,261.75 396.00,286.00
             396.00,286.00 404.00,300.00 404.00,300.00
             404.00,300.00 420.67,304.67 420.67,304.67
             420.67,304.67 443.33,281.33 443.33,280.00
             443.33,278.67 465.33,253.33 465.33,253.33
             465.33,253.33 482.00,270.00 482.00,270.00
             482.00,270.00 467.33,300.00 467.33,300.00
             467.33,300.00 454.67,328.67 454.67,328.67
             454.67,328.67 446.67,348.67 446.67,348.67
             446.67,348.67 484.67,410.00 484.67,410.00
             484.67,410.00 518.67,457.33 518.67,456.67
             518.67,456.00 578.00,509.33 578.00,509.33
             578.00,509.33 598.67,524.67 598.67,524.67
             598.67,524.67 643.33,533.33 643.33,533.33
             643.33,533.33 694.00,559.33 694.00,559.33
             694.00,559.33 698.67,568.67 698.67,568.67
             698.67,568.67 722.67,570.67 724.00,570.67
             725.33,570.67 719.33,528.67 719.33,528.67
             719.33,528.67 712.67,464.67 712.67,464.67
             712.67,464.67 722.67,452.00 722.67,452.00
             722.67,452.00 750.00,394.00 750.00,394.00
             750.00,394.00 798.00,353.33 798.00,353.33
             798.00,353.33 814.67,344.67 814.67,344.67
             814.67,344.67 852.00,342.67 852.00,342.67
             852.00,342.67 880.00,350.67 880.00,350.67
             880.00,350.67 913.33,363.33 914.00,363.33
             914.67,363.33 946.00,400.67 946.00,400.67
             946.00,400.67 952.00,420.67 952.00,420.67
             952.00,420.67 968.00,436.67 968.00,436.67
             968.00,436.67 970.00,458.00 970.00,458.00
             970.00,458.00 987.33,485.33 986.67,485.33
             986.00,485.33 995.33,521.33 995.33,521.33
             995.33,521.33 989.33,536.67 989.33,536.67
             989.33,536.67 1003.33,566.00 1003.33,566.00
             1003.33,566.00 1020.67,593.33 1020.67,593.33
             1020.67,593.33 1021.33,606.67 1021.33,606.67
             1021.33,606.67 1037.33,636.67 1037.33,636.67
             1037.33,636.67 1057.33,660.00 1057.33,660.00
             1057.33,660.00 1062.67,700.67 1062.67,700.67
             1062.67,700.67 1055.33,714.67 1055.33,714.67
             1055.33,714.67 1063.33,732.00 1063.33,732.00
             1063.33,732.00 1086.67,744.67 1086.67,744.67
             1086.67,744.67 1100.00,764.00 1100.00,764.00
             1100.00,764.00 1128.67,798.67 1128.67,798.67
             1128.67,798.67 1147.33,836.00 1147.33,836.00
             1147.33,836.00 1158.00,880.67 1158.00,880.67
             1158.00,880.67 1162.67,942.67 1162.67,942.67
             1162.67,942.67 1159.33,992.00 1159.33,992.00
             1159.33,992.00 1160.67,1079.33 1160.67,1079.33
             1160.67,1079.33 1157.33,1114.67 1157.33,1114.67
             1157.33,1114.67 1164.67,1156.00 1164.67,1156.00
             1164.67,1156.00 1164.00,1228.67 1164.00,1228.67
             1164.00,1228.67 1165.33,1241.33 1165.33,1241.33
             1165.33,1241.33 1158.00,1248.00 1158.00,1248.00
             1158.00,1248.00 1155.33,1298.00 1155.33,1298.00
             1155.33,1298.00 1154.00,1309.33 1154.00,1309.33
             1154.00,1309.33 1164.67,1322.00 1165.33,1322.00
             1166.00,1322.00 1167.33,1352.00 1167.33,1352.00
             1167.33,1352.00 1152.00,1359.33 1152.00,1359.33
             1152.00,1359.33 1141.33,1378.67 1141.33,1378.67
             1141.33,1378.67 1150.00,1402.00 1150.00,1402.00
             1150.00,1402.00 1144.67,1422.67 1144.67,1422.67
             1144.67,1422.67 1146.67,1454.67 1146.67,1454.67
             1146.67,1454.67 1161.33,1464.00 1161.33,1464.00
             1161.33,1464.00 1168.67,1482.67 1168.67,1482.67
             1168.67,1482.67 1178.00,1502.00 1178.00,1502.00
             1178.00,1502.00 1174.67,1522.67 1174.67,1522.67
             1174.67,1522.67 1166.00,1529.33 1166.00,1529.33
             1166.00,1529.33 1176.00,1544.67 1176.00,1544.67
             1176.00,1544.67 1186.00,1561.33 1186.00,1561.33
             1186.00,1561.33 1202.00,1582.67 1202.00,1582.67
             1202.00,1582.67 1228.67,1602.67 1228.67,1602.67
             1228.67,1602.67 1242.67,1612.67 1242.67,1612.67
             1242.67,1612.67 1262.67,1613.33 1262.67,1613.33
             1262.67,1613.33 1266.00,1621.33 1266.00,1621.33
             1266.00,1621.33 1288.67,1628.67 1288.67,1628.67
             1288.67,1628.67 1285.33,1640.00 1285.33,1640.00
             1285.33,1640.00 1254.00,1639.33 1254.00,1639.33
             1254.00,1639.33 1229.33,1630.67 1229.33,1630.00
             1229.33,1629.33 1208.67,1623.33 1208.67,1623.33
             1208.67,1623.33 1200.67,1630.00 1200.67,1630.00
             1200.67,1630.00 1188.00,1631.33 1188.00,1630.67
             1188.00,1630.00 1172.00,1620.00 1172.00,1620.00
             1172.00,1620.00 1165.67,1619.67 1165.33,1619.67
             1165.00,1619.67 1154.33,1668.33 1154.33,1668.33
             1154.33,1668.33 1132.67,1676.00 1132.67,1676.00
             1132.67,1676.00 1123.67,1669.33 1123.67,1669.33
             1123.67,1669.33 1130.00,1642.33 1130.00,1642.33
             1130.00,1642.33 1128.67,1633.33 1128.67,1633.33
             1128.67,1633.33 1119.67,1631.00 1119.67,1631.00
             1119.67,1631.00 1121.00,1607.33 1121.00,1607.33
             1121.00,1607.33 1103.00,1601.33 1103.00,1601.33
             1103.00,1601.33 1085.00,1578.00 1085.00,1578.00
             1085.00,1578.00 1077.67,1572.67 1077.33,1572.67
             1077.00,1572.67 1065.00,1578.33 1065.00,1578.33
             1065.00,1578.33 1045.67,1565.00 1045.67,1565.00
             1045.67,1565.00 1025.00,1546.00 1025.00,1546.00
             1025.00,1546.00 1024.33,1535.00 1024.33,1535.00
             1024.33,1535.00 1001.33,1525.67 1001.67,1525.33
             1002.00,1525.00 967.67,1468.00 967.67,1468.00
             967.67,1468.00 944.33,1402.67 944.33,1402.67
             944.33,1402.67 946.67,1374.00 946.67,1374.00
             946.67,1374.00 944.00,1337.00 944.00,1337.00
             944.00,1337.00 944.33,1316.00 944.33,1316.00
             944.33,1316.00 948.67,1309.00 948.67,1309.00
             948.67,1309.00 954.67,1282.33 954.67,1282.33
             954.67,1282.33 962.33,1257.33 962.33,1257.33
             962.33,1257.33 963.33,1246.33 963.33,1246.33
             963.33,1246.33 926.33,1249.67 926.33,1249.67
             926.33,1249.67 919.00,1248.67 919.00,1248.67
             919.00,1248.67 921.00,1268.00 921.00,1268.00
             921.00,1268.00 919.00,1285.00 919.00,1285.00
             919.00,1285.00 919.67,1298.67 919.67,1298.67
             919.67,1298.67 920.00,1327.00 920.00,1327.00
             920.00,1327.00 911.33,1359.00 911.33,1359.00
             911.33,1359.00 894.67,1399.33 894.67,1399.33
             894.67,1399.33 882.33,1418.33 882.33,1418.33
             882.33,1418.33 853.00,1449.67 853.00,1449.67
             853.00,1449.67 810.67,1472.33 810.67,1472.33
             810.67,1472.33 760.00,1486.33 760.00,1486.33
             760.00,1486.33 752.67,1486.00 752.67,1486.00
             752.67,1486.00 721.67,1490.33 721.67,1490.33
             721.67,1490.33 694.00,1487.67 694.00,1487.67
             694.00,1487.67 684.67,1541.67 684.67,1541.67
             684.67,1541.67 681.00,1591.33 681.00,1591.33
             681.00,1591.33 666.33,1619.33 666.33,1619.33
             666.33,1619.33 646.00,1638.00 646.00,1638.00
             646.00,1638.00 625.67,1646.67 625.67,1646.67
             625.67,1646.67 616.33,1650.00 616.33,1650.00
             616.33,1650.00 612.33,1655.00 612.33,1655.00
             612.33,1655.00 610.00,1661.67 610.00,1661.67
             610.00,1661.67 609.33,1670.67 609.33,1670.67
             609.33,1670.67 608.00,1679.00 608.00,1679.00
             608.00,1679.00 618.00,1690.33 618.00,1690.33
             618.00,1690.33 623.67,1704.67 623.67,1704.67
             623.67,1704.67 629.33,1725.33 629.33,1725.33
             629.33,1725.33 634.00,1745.67 634.00,1745.67
             634.00,1745.67 638.00,1774.67 638.00,1774.67
             638.00,1774.67 643.33,1783.67 643.33,1783.67
             643.33,1783.67 646.00,1799.33 646.00,1799.33
             646.00,1799.33 648.00,1825.33 648.00,1825.33
             648.00,1825.33 639.67,1840.00 639.67,1840.00
             639.67,1840.00 613.00,1853.33 613.00,1853.33
             613.00,1853.33 590.33,1863.00 590.33,1863.00
             590.33,1863.00 565.33,1874.33 565.33,1874.33
             565.33,1874.33 531.00,1895.00 531.00,1895.00
             531.00,1895.00 479.67,1911.67 479.67,1911.67
             479.67,1911.67 426.00,1919.33 426.00,1919.33
             426.00,1919.33 370.67,1921.00 370.67,1921.00
             370.67,1921.00 319.33,1913.67 319.33,1913.67
             319.33,1913.67 290.33,1900.67 290.33,1900.67
             290.33,1900.67 291.00,1869.67 291.00,1869.67
             291.00,1869.67 300.00,1863.00 300.00,1863.00
             300.00,1863.00 325.33,1836.00 326.00,1835.33 Z
           M 373.00,293.75" />
</svg>
