<?xml version="1.0" encoding="UTF-8" standalone="no"?>
<!DOCTYPE svg PUBLIC "-//W3C//DTD SVG 20010904//EN"
              "http://www.w3.org/TR/2001/REC-SVG-20010904/DTD/svg10.dtd">

<svg xmlns="http://www.w3.org/2000/svg"
     width="4.55in" height="6.82667in"
     viewBox="0 0 1365 2048">
  <path id="Main"
        fill="none" stroke="black" stroke-width="1"
        d="M 514.00,606.00
           C 512.13,603.48 506.79,596.88 506.86,593.96
             506.97,589.71 512.28,583.88 514.04,579.99
             517.56,572.17 517.26,566.16 516.73,558.00
             516.34,552.16 517.64,550.91 514.47,544.13
             512.87,540.71 511.05,541.01 508.93,535.98
             506.49,530.22 505.91,523.34 502.48,518.00
             502.48,518.00 497.04,511.00 497.04,511.00
             497.04,511.00 484.08,493.00 484.08,493.00
             478.27,484.11 474.36,474.45 469.63,465.00
             465.18,456.09 459.19,445.66 456.60,436.00
             452.62,421.12 452.73,394.32 458.53,380.00
             463.48,367.75 471.87,356.91 480.42,347.00
             491.37,334.32 499.14,330.20 514.00,323.73
             533.27,315.35 541.01,313.76 562.00,314.00
             566.70,314.06 586.10,317.08 590.00,318.67
             590.00,318.67 608.01,329.14 608.01,329.14
             614.42,332.61 614.38,329.76 623.00,336.77
             634.79,346.36 627.57,345.72 635.03,351.29
             635.03,351.29 650.83,362.95 650.83,362.95
             650.83,362.95 656.09,367.47 656.09,367.47
             656.09,367.47 664.99,372.47 664.99,372.47
             667.95,374.74 676.11,384.69 678.38,388.00
             683.24,395.07 685.31,409.14 687.89,412.95
             690.98,417.53 697.99,419.51 706.36,431.00
             709.84,435.79 714.82,446.66 720.01,448.92
             725.20,451.18 735.61,440.67 740.00,437.74
             740.00,437.74 755.00,429.40 755.00,429.40
             767.64,422.95 775.56,419.81 790.00,420.00
             795.79,420.08 795.06,420.64 800.00,421.63
             809.28,423.49 811.17,424.23 819.00,430.04
             820.88,431.44 824.44,433.36 825.67,435.30
             827.54,439.35 825.89,443.35 825.67,447.28
             825.67,447.28 826.96,457.00 826.96,457.00
             826.96,457.00 826.01,470.00 826.01,470.00
             825.96,472.47 825.77,476.74 827.02,478.85
             830.05,483.98 843.85,481.45 849.00,480.54
             849.00,480.54 865.00,477.75 865.00,477.75
             865.00,477.75 871.00,477.21 871.00,477.21
             871.00,477.21 878.00,474.83 878.00,474.83
             878.00,474.83 889.00,472.15 889.00,472.15
             889.00,472.15 898.00,470.41 898.00,470.41
             898.00,470.41 910.00,463.95 910.00,463.95
             910.00,463.95 923.00,455.94 923.00,455.94
             926.78,454.44 928.54,456.26 932.00,454.31
             936.27,451.90 941.40,444.22 948.00,440.47
             955.32,436.30 961.08,436.84 968.00,430.86
             978.41,421.85 980.91,407.52 993.00,399.72
             993.00,399.72 1012.00,392.44 1012.00,392.44
             1021.16,386.26 1028.45,374.32 1047.00,367.32
             1047.00,367.32 1059.00,364.37 1059.00,364.37
             1065.23,362.38 1065.85,361.15 1074.00,359.51
             1079.37,358.43 1083.29,359.92 1088.00,357.61
             1092.00,355.64 1096.29,351.89 1100.00,349.40
             1106.53,345.01 1109.81,343.90 1116.00,337.96
             1120.61,333.53 1125.20,327.14 1130.00,323.61
             1135.36,319.68 1137.69,320.52 1143.00,318.14
             1143.00,318.14 1159.00,309.20 1159.00,309.20
             1164.10,306.05 1168.66,301.15 1175.00,300.78
             1176.95,300.66 1180.02,301.49 1182.00,301.94
             1189.14,303.59 1194.08,304.68 1193.98,313.00
             1193.95,315.67 1193.73,317.52 1192.44,319.91
             1192.44,319.91 1178.00,338.00 1178.00,338.00
             1172.64,338.30 1169.63,342.40 1166.00,346.00
             1166.00,346.00 1172.95,351.21 1172.95,351.21
             1172.95,351.21 1190.00,358.00 1190.00,358.00
             1193.58,363.70 1196.51,360.01 1205.00,366.09
             1209.37,369.22 1221.63,378.09 1226.00,380.08
             1226.00,380.08 1231.00,381.71 1231.00,381.71
             1231.00,381.71 1237.00,385.11 1237.00,385.11
             1242.15,387.81 1244.39,387.22 1249.94,391.96
             1254.77,396.08 1253.78,397.56 1256.75,401.96
             1261.48,408.97 1261.38,405.05 1265.70,418.00
             1267.44,423.20 1267.06,428.66 1267.90,434.00
             1268.46,437.58 1270.10,444.61 1269.26,448.00
             1267.97,453.26 1264.21,455.88 1259.00,455.00
             1259.00,459.60 1260.06,466.18 1255.85,469.15
             1252.28,471.66 1237.56,472.15 1234.71,468.49
             1233.61,467.08 1234.01,466.44 1234.00,465.00
             1234.00,465.00 1224.00,464.00 1224.00,464.00
             1221.29,459.16 1218.10,458.59 1214.80,453.99
             1214.80,453.99 1204.98,432.00 1204.98,432.00
             1204.10,429.34 1201.75,424.08 1198.18,424.62
             1196.16,424.93 1193.20,429.39 1191.83,431.00
             1190.11,433.01 1187.52,435.50 1186.64,438.00
             1184.59,443.82 1189.89,458.49 1189.81,465.00
             1189.81,465.00 1189.81,483.00 1189.81,483.00
             1189.81,483.00 1187.53,490.00 1187.53,490.00
             1187.53,490.00 1186.69,495.91 1186.69,495.91
             1185.88,499.04 1184.19,499.69 1183.30,503.04
             1182.84,504.74 1182.87,508.11 1181.60,512.00
             1181.60,512.00 1170.89,543.96 1170.89,543.96
             1170.36,547.62 1172.08,548.30 1171.43,552.04
             1171.43,552.04 1164.96,569.00 1164.96,569.00
             1164.09,572.04 1165.00,575.88 1163.41,581.00
             1163.41,581.00 1155.30,599.00 1155.30,599.00
             1155.30,599.00 1153.27,605.78 1153.27,605.78
             1151.73,608.94 1149.13,608.50 1146.81,611.30
             1146.81,611.30 1138.50,626.00 1138.50,626.00
             1132.22,637.16 1135.09,638.74 1132.98,643.00
             1132.98,643.00 1128.02,650.00 1128.02,650.00
             1126.55,652.86 1127.33,654.72 1124.69,657.82
             1124.69,657.82 1117.31,664.18 1117.31,664.18
             1113.91,668.07 1113.00,676.00 1104.00,676.00
             1104.00,676.00 1100.00,677.00 1100.00,677.00
             1094.88,686.25 1084.27,686.11 1075.00,689.34
             1071.09,690.71 1067.11,693.33 1063.00,692.78
             1060.56,692.45 1058.88,691.50 1056.00,691.62
             1056.00,691.62 1045.00,694.57 1045.00,694.57
             1045.00,694.57 1032.00,696.72 1032.00,696.72
             1032.00,696.72 1019.00,701.37 1019.00,701.37
             1019.00,701.37 1002.00,701.37 1002.00,701.37
             994.42,701.89 983.88,703.63 977.00,700.00
             977.00,700.00 969.00,701.00 969.00,701.00
             969.00,701.00 957.28,694.78 957.28,694.78
             957.28,694.78 948.17,690.06 948.17,690.06
             948.17,690.06 935.00,681.00 935.00,681.00
             933.56,686.91 934.01,692.96 934.00,699.00
             933.99,704.78 932.73,710.11 929.42,715.00
             924.83,721.77 921.78,719.39 921.79,729.00
             921.79,737.98 917.55,733.92 914.18,743.00
             913.12,745.86 910.63,753.22 910.49,756.00
             910.49,756.00 910.49,765.00 910.49,765.00
             910.01,770.12 908.10,770.34 908.00,779.00
             907.90,787.61 911.40,804.19 913.41,813.00
             913.41,813.00 914.51,822.00 914.51,822.00
             914.51,822.00 918.68,835.00 918.68,835.00
             918.68,835.00 920.72,845.99 920.72,845.99
             920.72,845.99 923.97,853.17 923.97,853.17
             923.97,853.17 923.97,861.00 923.97,861.00
             923.97,861.00 925.81,868.00 925.81,868.00
             928.08,881.95 926.42,879.51 931.08,895.00
             931.08,895.00 933.80,902.00 933.80,902.00
             933.80,902.00 938.04,917.00 938.04,917.00
             938.04,917.00 940.06,927.00 940.06,927.00
             941.49,932.18 943.65,932.09 943.88,937.04
             944.32,946.58 945.39,942.65 947.04,950.00
             947.04,950.00 948.37,958.00 948.37,958.00
             948.37,958.00 950.62,965.00 950.62,965.00
             951.99,971.18 952.01,977.71 952.00,984.00
             951.98,994.74 948.33,1007.28 936.00,1009.00
             939.94,1016.64 943.56,1024.41 939.32,1033.00
             939.32,1033.00 928.81,1048.10 928.81,1048.10
             928.36,1049.50 928.52,1050.59 928.81,1052.00
             928.81,1052.00 928.81,1060.00 928.81,1060.00
             928.81,1060.00 928.02,1070.00 928.02,1070.00
             928.02,1070.00 928.02,1086.00 928.02,1086.00
             927.88,1096.13 922.95,1110.11 920.04,1120.00
             920.04,1120.00 918.21,1128.00 918.21,1128.00
             918.21,1128.00 912.62,1141.00 912.62,1141.00
             912.62,1141.00 907.16,1149.00 907.16,1149.00
             907.16,1149.00 906.04,1156.00 906.04,1156.00
             906.04,1156.00 899.70,1174.84 899.70,1174.84
             898.08,1177.74 896.22,1177.28 894.38,1179.43
             894.38,1179.43 890.44,1185.91 890.44,1185.91
             888.16,1188.86 885.60,1190.30 883.39,1194.01
             883.39,1194.01 880.07,1201.96 880.07,1201.96
             876.89,1207.25 868.22,1213.15 862.00,1213.00
             860.25,1219.97 855.90,1220.90 850.00,1224.27
             850.00,1224.27 835.00,1234.15 835.00,1234.15
             830.54,1236.78 829.77,1235.57 826.00,1240.00
             828.64,1242.35 828.56,1246.63 829.20,1250.00
             829.20,1250.00 834.70,1272.00 834.70,1272.00
             834.70,1272.00 840.52,1287.00 840.52,1287.00
             840.52,1287.00 841.14,1299.00 841.14,1299.00
             841.67,1302.87 843.37,1304.21 843.16,1307.00
             842.96,1309.70 840.97,1310.97 841.11,1316.00
             841.11,1316.00 842.96,1332.00 842.96,1332.00
             842.96,1332.00 842.96,1353.00 842.96,1353.00
             842.94,1361.74 841.09,1361.72 838.99,1369.00
             837.95,1372.61 838.90,1374.16 837.40,1376.95
             835.92,1379.74 832.35,1381.97 830.00,1384.13
             822.50,1390.99 814.41,1396.38 806.00,1402.11
             800.61,1405.79 798.72,1404.17 796.00,1409.00
             796.00,1409.00 785.00,1409.58 785.00,1409.58
             785.00,1409.58 774.00,1413.64 774.00,1413.64
             774.00,1413.64 759.00,1410.00 759.00,1410.00
             759.00,1410.00 759.00,1405.00 759.00,1405.00
             755.75,1403.97 754.69,1402.96 752.05,1400.84
             744.09,1394.47 745.14,1392.10 745.56,1383.00
             745.73,1379.39 745.04,1377.36 747.51,1374.17
             752.31,1368.00 757.93,1370.25 761.01,1364.94
             763.04,1361.46 762.01,1354.19 762.00,1350.00
             753.03,1348.55 753.66,1342.89 748.74,1337.00
             744.47,1331.90 741.93,1331.65 739.09,1329.46
             739.09,1329.46 732.91,1323.31 732.91,1323.31
             730.04,1320.99 728.67,1321.38 726.00,1320.01
             718.22,1316.03 720.04,1313.10 710.00,1316.00
             710.00,1316.00 699.00,1307.00 699.00,1307.00
             695.98,1308.89 696.27,1308.05 693.00,1308.41
             693.00,1308.41 687.00,1309.66 687.00,1309.66
             683.52,1309.98 673.93,1307.16 669.55,1316.99
             669.12,1317.96 668.23,1321.33 668.26,1322.42
             668.26,1322.42 668.26,1328.99 668.26,1328.99
             668.14,1331.67 666.87,1332.68 666.60,1334.42
             666.60,1334.42 666.60,1346.00 666.60,1346.00
             666.60,1346.00 671.73,1358.13 671.73,1358.13
             671.73,1358.13 671.00,1370.00 671.00,1370.00
             671.00,1370.00 671.83,1377.00 671.83,1377.00
             672.43,1383.24 671.81,1388.85 671.00,1395.00
             658.27,1395.00 662.90,1393.90 656.00,1393.06
             656.00,1393.06 646.00,1393.06 646.00,1393.06
             639.13,1392.96 633.03,1389.68 626.00,1391.31
             622.72,1392.07 621.30,1393.92 618.00,1394.69
             615.34,1395.31 612.89,1394.58 610.00,1396.02
             607.07,1397.49 604.67,1400.71 602.00,1402.40
             598.82,1404.41 597.07,1403.58 594.00,1405.00
             590.23,1406.75 588.26,1409.82 579.00,1411.00
             579.00,1425.12 578.15,1420.26 576.42,1433.00
             575.96,1436.46 576.04,1440.89 574.57,1444.00
             571.97,1449.50 567.46,1449.77 563.57,1455.02
             560.30,1459.44 560.91,1464.78 561.00,1470.00
             561.16,1478.83 564.69,1477.89 563.83,1486.00
             563.05,1493.22 556.86,1498.49 555.22,1505.00
             554.62,1507.37 555.77,1510.33 555.98,1513.00
             555.98,1513.00 555.98,1529.00 555.98,1529.00
             555.98,1529.00 557.09,1538.00 557.09,1538.00
             557.09,1538.00 556.13,1544.00 556.13,1544.00
             555.81,1546.95 555.56,1557.46 557.02,1559.69
             558.24,1561.55 566.64,1564.60 569.00,1565.00
             569.61,1571.56 570.66,1570.89 571.78,1576.00
             571.78,1576.00 574.02,1591.00 574.02,1591.00
             576.16,1597.99 577.90,1597.93 578.71,1601.17
             578.71,1601.17 581.26,1625.00 581.26,1625.00
             582.29,1631.27 584.89,1638.70 585.00,1645.00
             585.00,1645.00 585.91,1662.00 585.91,1662.00
             586.41,1669.29 585.65,1678.16 595.00,1680.00
             596.41,1685.46 597.88,1685.82 598.00,1692.00
             598.00,1692.00 598.00,1725.00 598.00,1725.00
             597.98,1737.60 595.29,1738.49 587.02,1747.00
             587.02,1747.00 578.87,1755.43 578.87,1755.43
             578.87,1755.43 575.00,1758.42 575.00,1758.42
             576.93,1757.23 559.00,1766.49 562.00,1765.40
             559.41,1766.34 557.19,1765.59 554.00,1766.93
             554.00,1766.93 544.00,1772.48 544.00,1772.48
             544.00,1772.48 498.00,1789.83 498.00,1789.83
             498.00,1789.83 492.00,1792.89 492.00,1792.89
             492.00,1792.89 484.00,1795.75 484.00,1795.75
             484.00,1795.75 473.00,1801.29 473.00,1801.29
             473.00,1801.29 450.00,1811.69 450.00,1811.69
             440.85,1816.55 440.01,1820.11 435.00,1823.04
             423.96,1829.48 423.42,1826.65 416.00,1829.47
             416.00,1829.47 410.00,1832.57 410.00,1832.57
             410.00,1832.57 386.00,1842.24 386.00,1842.24
             386.00,1842.24 380.00,1843.29 380.00,1843.29
             380.00,1843.29 372.00,1845.53 372.00,1845.53
             372.00,1845.53 365.00,1846.45 365.00,1846.45
             365.00,1846.45 353.00,1849.74 353.00,1849.74
             353.00,1849.74 340.00,1851.24 340.00,1851.24
             340.00,1851.24 333.00,1853.00 333.00,1853.00
             333.00,1853.00 327.00,1853.00 327.00,1853.00
             321.97,1853.75 319.78,1856.98 304.00,1857.00
             304.00,1857.00 277.00,1857.00 277.00,1857.00
             277.00,1857.00 264.00,1857.96 264.00,1857.96
             264.00,1857.96 245.00,1857.00 245.00,1857.00
             245.00,1857.00 205.00,1857.00 205.00,1857.00
             198.33,1856.89 198.76,1855.66 194.00,1854.91
             194.00,1854.91 185.04,1854.91 185.04,1854.91
             181.80,1853.91 180.99,1852.08 177.91,1851.31
             177.91,1851.31 162.04,1849.58 162.04,1849.58
             162.04,1849.58 155.83,1846.51 155.83,1846.51
             155.83,1846.51 140.04,1841.02 140.04,1841.02
             140.04,1841.02 133.83,1837.48 133.83,1837.48
             133.83,1837.48 129.17,1835.59 129.17,1835.59
             121.12,1831.45 107.98,1820.07 105.99,1811.00
             105.03,1806.62 107.63,1788.44 108.42,1783.00
             108.91,1779.64 108.89,1775.95 110.74,1773.00
             112.07,1770.87 121.25,1762.33 123.42,1760.97
             125.20,1759.87 126.80,1759.88 128.68,1758.41
             128.68,1758.41 141.51,1743.56 141.51,1743.56
             148.26,1737.39 157.20,1739.36 159.00,1733.00
             170.04,1732.72 169.61,1727.45 177.00,1726.54
             179.05,1726.45 180.57,1727.04 183.00,1726.54
             187.79,1725.19 193.60,1720.32 198.00,1718.27
             202.65,1716.11 205.68,1717.79 210.00,1715.69
             213.37,1714.04 215.17,1711.23 218.17,1709.21
             218.17,1709.21 227.00,1704.50 227.00,1704.50
             227.00,1704.50 234.00,1699.45 234.00,1699.45
             243.26,1692.75 251.03,1694.57 253.00,1681.00
             257.67,1680.95 266.95,1679.20 271.00,1677.02
             271.00,1677.02 277.00,1672.54 277.00,1672.54
             279.87,1670.53 283.56,1669.21 285.39,1665.98
             287.23,1662.74 284.98,1661.09 286.16,1658.00
             287.16,1655.38 293.72,1649.24 296.00,1647.01
             296.00,1647.01 317.00,1628.02 317.00,1628.02
             320.58,1626.23 325.16,1627.43 329.00,1626.86
             332.83,1626.29 339.32,1622.00 341.65,1618.95
             341.65,1618.95 345.96,1605.83 345.96,1605.83
             346.24,1601.86 343.99,1599.64 346.47,1595.28
             348.11,1592.42 357.37,1579.60 359.54,1578.00
             359.54,1578.00 364.96,1575.41 364.96,1575.41
             364.96,1575.41 372.09,1569.30 372.09,1569.30
             374.08,1568.10 376.63,1567.76 377.98,1565.69
             379.29,1563.68 378.99,1559.41 379.00,1557.00
             379.02,1553.03 378.88,1547.63 382.30,1544.89
             384.07,1543.47 390.01,1542.26 393.00,1541.00
             393.00,1541.00 399.00,1545.00 399.00,1545.00
             399.00,1545.00 403.16,1537.00 403.16,1537.00
             403.16,1537.00 405.88,1528.00 405.88,1528.00
             405.88,1528.00 411.00,1519.00 411.00,1519.00
             404.33,1514.53 411.45,1509.73 413.33,1505.00
             413.33,1505.00 414.36,1499.00 414.36,1499.00
             416.25,1492.50 420.18,1485.86 420.87,1479.00
             421.34,1474.34 419.21,1468.25 420.31,1464.09
             421.26,1460.50 424.09,1459.53 425.40,1455.99
             425.40,1455.99 427.00,1440.14 427.00,1440.14
             427.00,1440.14 414.00,1440.14 414.00,1440.14
             414.00,1440.14 406.00,1442.78 406.00,1442.78
             406.00,1442.78 387.00,1445.00 387.00,1445.00
             381.72,1438.95 378.40,1440.01 371.00,1440.00
             371.00,1440.00 349.00,1436.86 349.00,1436.86
             341.40,1434.37 335.11,1429.23 329.00,1424.38
             321.58,1418.47 319.39,1418.39 312.30,1410.00
             303.28,1399.32 299.84,1384.65 300.00,1371.00
             300.20,1354.21 307.65,1331.83 315.55,1317.00
             315.55,1317.00 322.07,1307.00 322.07,1307.00
             322.07,1307.00 325.01,1301.00 325.01,1301.00
             325.01,1301.00 331.62,1291.00 331.62,1291.00
             333.32,1287.75 333.07,1286.36 335.39,1283.00
             335.39,1283.00 344.27,1272.00 344.27,1272.00
             346.54,1268.36 345.66,1266.59 350.60,1260.00
             357.69,1250.53 362.98,1247.83 363.00,1235.00
             363.00,1235.00 363.00,1202.00 363.00,1202.00
             363.00,1202.00 365.72,1178.00 365.72,1178.00
             365.72,1178.00 367.00,1154.00 367.00,1154.00
             367.11,1147.33 368.34,1147.76 368.87,1143.00
             368.87,1143.00 370.13,1120.00 370.13,1120.00
             370.13,1120.00 373.29,1101.00 373.29,1101.00
             373.29,1101.00 375.70,1094.00 375.70,1094.00
             375.70,1094.00 376.29,1085.00 376.29,1085.00
             376.29,1085.00 381.41,1052.00 381.41,1052.00
             382.71,1044.55 383.84,1045.75 384.70,1041.96
             384.70,1041.96 387.26,1023.00 387.26,1023.00
             387.26,1023.00 390.55,1013.00 390.55,1013.00
             392.57,1003.62 391.90,998.27 392.00,989.00
             392.00,989.00 393.74,965.00 393.74,965.00
             393.74,965.00 393.74,956.00 393.74,956.00
             393.74,956.00 401.77,931.00 401.77,931.00
             401.77,931.00 408.87,918.00 408.87,918.00
             408.87,918.00 414.27,911.00 414.27,911.00
             416.86,906.76 414.77,905.51 424.46,893.00
             431.57,883.82 445.09,872.93 456.00,868.61
             461.17,866.56 466.62,865.43 472.00,864.16
             478.50,862.62 477.44,861.85 485.00,862.01
             485.00,862.01 503.00,862.85 503.00,862.85
             507.65,862.94 512.36,862.08 517.00,862.85
             521.27,863.27 536.83,867.12 539.91,866.23
             543.08,865.32 547.12,859.67 549.00,857.00
             543.33,853.61 546.62,846.34 547.72,841.00
             547.72,841.00 552.06,822.00 552.06,822.00
             552.06,822.00 553.12,816.00 553.12,816.00
             553.12,816.00 555.62,809.00 555.62,809.00
             557.37,801.27 555.78,803.32 559.13,794.00
             559.13,794.00 564.61,771.00 564.61,771.00
             565.87,766.55 568.02,764.58 568.66,762.58
             569.25,759.91 567.53,758.05 568.66,754.00
             568.66,754.00 573.82,744.00 573.82,744.00
             576.54,736.12 575.51,734.68 576.78,730.00
             576.78,730.00 584.00,708.00 584.00,708.00
             584.00,708.00 584.64,702.00 584.64,702.00
             585.52,698.09 587.79,696.56 588.70,691.00
             588.70,691.00 590.21,671.00 590.21,671.00
             591.21,663.80 593.12,658.70 593.02,651.00
             592.92,643.10 594.33,638.45 595.37,631.00
             595.37,631.00 595.37,622.00 595.37,622.00
             595.37,622.00 599.24,612.00 599.24,612.00
             599.24,612.00 600.60,602.00 600.60,602.00
             600.60,602.00 606.00,593.00 606.00,593.00
             603.87,592.99 595.22,591.84 594.62,594.23
             594.24,595.72 596.29,597.18 597.00,598.45
             598.07,600.36 597.93,601.91 598.00,604.00
             593.81,604.49 593.60,606.12 593.00,610.00
             593.00,610.00 588.00,609.00 588.00,609.00
             588.00,609.00 583.00,614.00 583.00,614.00
             583.00,614.00 584.00,621.00 584.00,621.00
             584.00,621.00 571.00,623.00 571.00,623.00
             571.00,623.00 571.00,620.00 571.00,620.00
             571.00,620.00 565.75,623.30 565.75,623.30
             565.75,623.30 559.83,621.54 559.83,621.54
             559.83,621.54 554.00,620.51 554.00,620.51
             554.00,620.51 547.00,618.00 547.00,618.00
             547.00,618.00 546.00,626.00 546.00,626.00
             542.00,625.10 537.94,624.25 534.92,621.28
             530.23,616.65 527.65,604.32 514.00,606.00 Z" />
</svg>
