<svg xmlns="http://www.w3.org/2000/svg" width="1600" height="1600" viewBox="0 0 600 600">

  <style>
    :root {
      --taenzle-gray: rgb(103, 110, 120);
      --taenzle-rose: rgb(255, 194, 210);
    }

    svg {
      background-color: var(--taenzle-gray);
      border-radius: 100%;
    }

    .main {
      fill: whitesmoke;
      stroke: rgba(103, 110, 120, 0.412);
      stroke-width: 5px;
    }

    .shadow {
      fill: var(--taenzle-rose);
    }
  </style>
  <symbol id="logo" width="100%" height="100%" viewBox="0 0 1365 2048">
    <path id="body" d="M 347.00,230.62
           C 347.00,230.62 350.50,226.38 359.00,230.62
             363.25,233.50 367.28,238.09 369.25,240.38
             371.94,243.49 380.50,253.86 382.12,257.00
             382.12,257.00 386.75,265.62 386.75,265.62
             386.75,265.62 392.12,277.12 392.12,277.12
             397.72,287.64 399.88,294.88 408.50,301.25
             411.56,302.28 418.75,302.88 420.12,306.62
             426.95,302.16 431.74,296.62 431.75,296.62
             431.76,296.63 441.38,281.75 444.12,276.00
             447.78,270.66 447.63,268.39 454.50,261.88
             457.53,259.00 463.83,253.25 467.05,252.30
             469.41,251.60 469.67,250.59 478.50,252.00
             486.62,257.00 486.38,265.50 484.00,273.25
             482.49,277.09 479.97,280.91 477.88,284.12
             475.27,288.13 473.92,290.43 472.12,293.88
             472.12,293.88 463.99,307.00 463.99,307.00
             463.99,307.00 461.00,312.00 461.00,312.00
             458.98,316.19 458.82,315.96 457.16,322.00
             457.16,322.00 454.38,333.00 454.38,333.00
             453.17,335.98 451.49,338.23 449.90,341.00
             449.90,341.00 445.12,352.25 445.12,352.25
             451.38,357.25 454.06,360.13 457.38,367.25
             457.38,367.25 473.34,395.00 473.34,395.00
             473.34,395.00 481.38,406.00 481.38,406.00
             481.38,406.00 489.12,415.75 489.12,415.75
             489.12,415.75 495.62,424.38 495.62,424.38
             496.83,426.82 505.12,438.00 508.33,446.53
             510.56,448.56 512.76,451.36 515.25,453.00
             515.25,453.00 522.75,457.75 522.75,457.75
             522.75,457.75 530.54,463.61 534.75,464.50
             542.62,470.00 545.80,470.33 553.12,476.62
             558.08,480.88 565.44,488.69 568.88,494.25
             571.88,499.12 572.25,500.38 576.88,505.88
             581.50,511.38 582.28,510.67 587.00,514.75
             594.21,520.98 596.21,523.83 606.00,527.20
             606.00,527.20 619.00,530.20 619.00,530.20
             623.58,531.52 623.59,532.77 629.00,533.04
             634.86,533.21 639.14,532.80 645.25,533.88
             649.50,534.73 650.20,535.56 654.00,536.99
             654.00,536.99 666.75,543.12 666.75,543.12
             666.75,543.12 682.25,552.38 682.25,552.38
             685.47,554.44 689.20,556.54 692.00,559.12
             694.39,561.33 698.47,564.81 698.47,568.06
             702.47,569.06 701.88,568.91 707.19,569.22
             712.50,569.53 712.67,569.36 716.75,569.81
             716.75,569.81 722.28,570.22 724.06,569.97
             723.88,568.25 723.75,568.07 723.25,565.75
             721.62,558.12 720.64,559.64 719.47,552.00
             718.05,545.31 719.17,538.64 719.47,532.00
             720.18,525.34 718.06,523.36 716.54,518.00
             716.54,518.00 715.02,506.04 715.02,506.04
             715.02,506.04 715.02,499.83 715.02,499.83
             715.02,499.83 714.00,481.00 714.00,481.00
             714.00,481.00 715.64,463.82 715.64,463.82
             718.63,461.20 722.19,454.46 723.09,450.55
             723.09,450.55 726.18,440.36 726.18,440.36
             726.18,440.36 729.64,433.27 729.64,433.27
             731.70,427.65 731.55,426.42 733.64,422.36
             733.64,422.36 738.00,413.82 738.00,413.82
             736.32,417.92 745.25,400.84 742.91,404.55
             746.32,399.15 747.69,397.58 751.82,393.09
             755.99,388.56 759.22,384.81 762.73,380.36
             766.45,375.66 777.75,367.36 782.55,363.45
             786.80,360.22 790.70,358.37 795.09,355.27
             799.73,352.00 805.78,347.87 810.55,345.82
             830.36,342.00 849.40,341.30 870.00,348.55
             877.82,350.91 887.48,354.85 895.09,357.45
             894.89,357.83 931.09,379.27 933.82,385.45
             936.45,387.51 935.84,387.83 939.68,392.06
             944.83,397.74 947.25,408.36 951.27,415.09
             953.81,419.34 955.65,421.05 957.27,423.45
             958.95,425.94 962.09,425.24 963.82,428.73
             963.82,428.73 969.82,442.18 969.82,442.18
             969.09,447.64 969.45,449.45 969.82,454.55
             974.58,468.08 978.18,473.09 984.18,482.18
             988.55,491.82 987.43,491.98 988.91,497.09
             988.91,497.09 989.82,496.91 990.91,505.27
             992.00,513.64 994.73,514.73 994.73,514.73
             995.27,519.45 995.80,521.96 995.09,527.64
             995.09,527.64 994.00,531.82 991.64,535.09
             989.27,538.36 989.58,539.12 989.82,540.73
             989.82,540.73 998.18,558.18 998.18,558.18
             998.18,558.18 1004.55,568.36 1004.55,568.36
             1006.38,570.81 1008.29,574.66 1009.64,577.45
             1009.64,577.45 1014.00,584.18 1014.00,584.18
             1015.91,588.81 1018.92,594.09 1019.82,598.91
             1018.71,608.32 1019.64,609.45 1021.45,618.36
             1026.73,626.18 1028.43,629.94 1034.36,635.64
             1042.25,643.22 1052.46,651.01 1058.00,660.55
             1063.14,669.40 1063.36,674.47 1063.82,684.91
             1063.82,684.91 1062.55,697.82 1062.55,697.82
             1062.55,697.82 1057.45,717.45 1057.45,717.45
             1058.30,720.50 1060.26,720.21 1061.82,722.91
             1063.28,725.44 1064.13,729.12 1065.45,732.73
             1065.45,732.73 1084.91,744.55 1084.91,744.55
             1091.06,749.93 1094.19,756.66 1099.09,762.73
             1099.09,762.73 1109.45,775.64 1109.45,775.64
             1109.45,775.64 1116.91,784.91 1116.91,784.91
             1127.94,797.26 1125.99,792.96 1135.64,808.55
             1135.64,808.55 1139.45,815.82 1139.45,815.82
             1142.22,822.01 1143.03,822.30 1144.55,827.82
             1144.55,827.82 1149.96,838.93 1151.27,850.36
             1151.27,853.64 1152.18,855.82 1151.82,859.64
             1154.08,867.63 1155.34,870.70 1156.00,874.55
             1156.00,874.55 1157.96,880.64 1159.64,890.55
             1159.45,897.27 1160.55,908.00 1160.55,908.00
             1160.55,908.00 1160.73,916.00 1160.73,916.00
             1160.73,916.00 1162.12,933.00 1162.12,933.00
             1162.12,933.00 1161.64,943.09 1161.64,943.09
             1161.64,943.09 1161.09,967.09 1161.09,967.09
             1161.09,967.09 1160.18,980.91 1160.18,980.91
             1160.18,980.91 1159.82,989.45 1159.82,989.45
             1159.66,992.58 1159.88,994.74 1159.45,999.82
             1159.45,999.82 1158.91,1019.27 1158.91,1019.27
             1158.91,1019.27 1158.00,1033.00 1158.00,1033.00
             1158.00,1033.00 1158.73,1059.45 1158.73,1059.45
             1158.73,1059.45 1158.91,1081.09 1158.91,1081.09
             1158.85,1084.87 1158.11,1085.34 1157.92,1092.00
             1157.92,1092.00 1158.01,1103.45 1157.92,1109.00
             1157.82,1114.55 1158.18,1115.45 1158.91,1124.55
             1159.64,1133.64 1161.82,1145.27 1161.82,1145.27
             1161.82,1145.27 1163.13,1162.96 1163.13,1162.96
             1163.13,1162.96 1163.82,1234.55 1163.82,1234.55
             1163.80,1247.85 1162.19,1242.20 1160.55,1249.27
             1160.55,1249.27 1160.18,1274.36 1160.18,1274.36
             1160.01,1287.22 1158.25,1283.67 1157.50,1290.88
             1156.82,1294.03 1156.69,1296.05 1156.19,1298.81
             1156.20,1299.93 1154.38,1300.18 1153.94,1301.75
             1153.94,1303.31 1153.62,1304.25 1154.12,1306.94
             1154.48,1312.81 1160.91,1317.27 1164.18,1320.18
             1168.02,1327.97 1167.43,1339.18 1167.27,1347.82
             1167.11,1353.29 1165.51,1355.86 1163.50,1356.50
             1161.09,1357.27 1157.93,1355.77 1153.64,1359.82
             1148.74,1364.38 1147.62,1367.31 1145.82,1370.91
             1144.20,1374.14 1142.74,1378.19 1141.27,1382.36
             1138.97,1388.91 1147.39,1395.71 1148.36,1402.73
             1149.24,1409.01 1146.74,1411.62 1145.09,1417.00
             1143.75,1422.00 1144.01,1425.60 1144.18,1430.55
             1144.18,1437.30 1144.91,1448.91 1145.27,1455.09
             1146.94,1458.26 1152.65,1455.86 1156.55,1460.00
             1161.02,1464.75 1162.00,1467.82 1163.68,1475.83
             1164.55,1482.55 1169.88,1487.75 1173.88,1491.00
             1173.88,1491.00 1176.25,1494.38 1176.25,1494.38
             1176.59,1495.48 1175.98,1497.25 1176.75,1498.88
             1177.12,1502.25 1176.88,1505.38 1176.88,1508.12
             1176.88,1510.88 1176.98,1511.04 1176.01,1513.04
             1176.01,1513.04 1175.12,1520.12 1175.12,1520.12
             1171.50,1523.25 1170.88,1528.00 1167.25,1531.50
             1167.52,1533.92 1170.06,1535.80 1171.12,1537.88
             1172.29,1540.16 1172.87,1543.16 1173.75,1544.50
             1178.38,1547.75 1179.07,1547.90 1182.00,1552.00
             1184.89,1556.04 1182.81,1557.85 1187.88,1565.50
             1192.55,1572.57 1198.80,1578.54 1204.75,1584.38
             1204.75,1584.38 1212.12,1593.50 1212.12,1593.50
             1217.42,1599.22 1238.46,1610.54 1246.00,1612.75
             1251.15,1614.26 1259.61,1612.54 1262.88,1614.38
             1265.53,1615.87 1264.12,1618.00 1264.62,1621.00
             1265.09,1621.87 1265.38,1623.58 1266.50,1624.12
             1268.15,1624.92 1270.69,1625.85 1272.62,1626.12
             1273.78,1626.29 1281.38,1627.25 1286.00,1627.50
             1289.41,1628.59 1290.00,1630.65 1290.25,1632.25
             1290.25,1632.25 1290.62,1635.62 1290.38,1638.75
             1285.50,1641.62 1258.02,1639.64 1250.50,1638.50
             1246.44,1637.88 1244.00,1636.75 1240.50,1635.88
             1236.62,1634.62 1226.28,1630.91 1223.12,1629.12
             1218.37,1626.44 1212.75,1622.99 1207.00,1622.50
             1204.50,1623.25 1201.31,1626.23 1201.50,1627.00
             1201.60,1627.41 1194.95,1629.35 1191.50,1629.25
             1188.49,1629.16 1183.52,1628.10 1183.38,1627.50
             1183.06,1626.21 1176.10,1623.28 1174.75,1622.62
             1172.15,1621.35 1170.38,1620.88 1166.00,1620.00
             1163.88,1621.50 1162.21,1623.62 1160.29,1630.00
             1158.38,1636.38 1154.88,1649.12 1154.38,1657.50
             1154.64,1669.00 1154.28,1670.73 1151.75,1674.38
             1147.38,1677.38 1135.88,1677.75 1129.25,1677.38
             1122.62,1677.00 1123.12,1670.00 1123.12,1670.00
             1123.22,1669.85 1127.75,1655.75 1125.62,1662.00
             1123.50,1668.25 1129.62,1654.75 1129.75,1648.50
             1129.88,1642.25 1129.62,1632.75 1129.62,1632.75
             1129.62,1632.75 1127.15,1633.58 1122.27,1634.45
             1121.28,1634.66 1120.97,1634.34 1120.52,1633.58
             1120.15,1630.45 1120.59,1622.27 1120.45,1616.27
             1120.71,1614.15 1121.53,1608.07 1120.82,1606.27
             1118.45,1604.36 1111.22,1607.01 1104.18,1602.00
             1097.18,1597.01 1096.88,1591.00 1092.73,1586.09
             1090.72,1583.72 1087.57,1579.03 1083.82,1576.27
             1081.18,1574.33 1079.00,1573.09 1076.18,1573.27
             1074.36,1578.73 1062.51,1578.74 1056.82,1574.36
             1048.90,1568.28 1028.25,1554.73 1024.55,1545.91
             1023.44,1543.28 1026.51,1535.28 1026.50,1532.50
             1026.50,1532.50 1022.50,1517.00 1022.50,1517.00
             1022.50,1517.00 1014.94,1501.33 1007.50,1488.50
             1001.32,1477.85 993.50,1459.00 993.50,1459.00
             992.65,1456.92 982.05,1425.77 980.50,1419.00
             978.64,1408.18 982.94,1394.40 982.50,1383.00
             977.00,1364.50 977.50,1343.00 977.50,1343.00
             977.06,1340.31 972.60,1330.27 973.50,1319.50
             980.87,1299.10 983.26,1275.47 983.00,1275.50
             984.26,1271.56 984.06,1260.43 984.83,1255.83
             978.00,1248.50 962.79,1248.75 964.79,1243.88
             964.79,1243.88 947.88,1247.12 947.88,1247.12
             938.62,1247.25 929.13,1250.62 919.50,1248.88
             919.75,1261.12 921.48,1261.44 921.25,1272.25
             921.25,1272.25 919.12,1290.12 919.12,1290.12
             919.12,1290.12 918.88,1298.00 918.88,1298.00
             918.92,1298.97 921.25,1299.89 921.25,1300.75
             921.24,1303.80 920.62,1305.75 918.59,1309.00
             918.52,1312.06 919.54,1315.65 919.00,1322.62
             918.71,1326.31 917.51,1336.38 915.12,1344.88
             912.50,1354.23 910.50,1362.62 909.00,1366.25
             907.50,1369.88 906.56,1372.36 905.50,1376.00
             905.50,1376.00 901.00,1387.38 901.00,1387.38
             901.00,1387.38 895.25,1399.00 895.25,1399.00
             893.91,1403.82 888.00,1410.25 885.62,1414.75
             883.25,1419.25 869.50,1438.12 869.50,1438.12
             869.50,1438.12 855.25,1449.88 855.25,1449.88
             850.12,1453.12 825.45,1469.45 804.38,1474.75
             770.20,1485.32 765.09,1486.73 759.00,1487.75
             752.91,1488.77 748.62,1488.50 741.00,1489.06
             733.38,1489.62 723.88,1490.00 724.00,1490.06
             724.00,1490.06 712.00,1490.06 712.00,1490.06
             712.00,1490.06 697.12,1488.88 694.00,1487.00
             691.50,1497.88 689.88,1510.75 689.88,1510.75
             689.88,1510.75 688.12,1520.38 688.12,1520.38
             688.12,1520.38 684.75,1543.00 684.00,1552.75
             683.25,1562.50 682.35,1574.88 681.62,1582.12
             680.90,1589.38 681.12,1594.50 679.38,1600.25
             677.75,1603.62 673.50,1608.58 669.43,1614.00
             665.81,1618.84 656.75,1628.25 653.38,1630.38
             653.38,1630.38 642.25,1638.38 642.25,1638.38
             642.25,1638.38 632.75,1642.50 632.75,1642.50
             630.29,1643.66 619.58,1646.18 615.62,1648.50
             615.57,1649.35 615.76,1651.77 614.88,1653.25
             614.28,1654.24 612.98,1654.50 611.62,1654.75
             610.87,1656.07 610.80,1657.17 610.50,1658.50
             610.50,1658.50 610.88,1669.00 610.88,1669.00
             610.51,1671.35 608.55,1674.63 609.50,1677.00
             610.12,1678.55 616.52,1685.99 619.38,1693.00
             622.26,1700.08 624.95,1704.74 625.00,1712.12
             625.06,1721.49 626.11,1718.54 627.57,1724.04
             626.87,1721.38 629.72,1740.58 629.57,1738.00
             629.59,1738.43 632.49,1742.25 633.88,1746.88
             633.75,1751.62 635.25,1766.62 635.88,1769.62
             637.86,1772.30 635.25,1777.25 640.88,1777.62
             643.38,1780.88 645.00,1792.50 645.00,1792.50
             645.00,1792.50 646.25,1815.25 646.25,1815.25
             646.31,1820.47 647.62,1826.50 646.50,1832.38
             641.92,1837.06 639.96,1838.64 634.62,1842.38
             621.08,1851.86 605.72,1855.94 590.62,1862.06
             590.62,1862.06 582.62,1866.14 582.62,1866.14
             582.62,1866.14 573.62,1870.11 573.62,1870.11
             569.32,1872.20 554.62,1879.88 547.38,1885.25
             540.12,1890.62 536.77,1892.14 533.00,1894.00
             533.00,1894.00 518.00,1902.50 518.00,1902.50
             514.09,1903.85 509.88,1904.88 503.00,1906.70
             503.00,1906.70 467.25,1915.75 467.25,1915.75
             467.25,1915.75 430.38,1920.75 422.75,1921.12
             415.12,1921.50 396.50,1922.12 377.50,1921.25
             358.50,1920.38 331.12,1918.25 320.88,1915.12
             310.62,1912.00 293.86,1904.12 292.25,1902.75
             288.25,1897.25 289.40,1896.52 288.75,1889.62
             288.47,1886.68 288.92,1884.94 289.12,1881.75
             289.48,1876.70 290.14,1872.54 292.62,1868.75
             295.12,1865.17 297.00,1863.38 299.25,1862.75
             300.88,1862.75 304.75,1854.75 304.75,1854.75
             306.88,1850.28 310.38,1846.25 313.88,1843.50
             313.88,1843.50 317.75,1837.50 320.38,1836.88
             323.62,1836.25 327.50,1835.75 327.50,1835.75
             332.99,1834.69 338.50,1827.88 342.50,1824.00
             345.99,1820.61 349.88,1819.00 352.12,1818.25
             357.90,1812.43 369.57,1803.65 374.50,1798.38
             377.33,1795.34 392.12,1782.62 401.50,1778.25
             408.75,1772.75 410.25,1768.62 415.12,1764.62
             415.12,1764.62 421.48,1752.74 423.50,1748.75
             423.75,1748.26 426.75,1741.62 426.75,1741.62
             426.75,1741.62 433.00,1730.75 436.38,1729.25
             441.12,1722.75 440.38,1721.62 442.12,1713.12
             444.50,1708.62 447.75,1704.25 449.38,1702.25
             452.12,1699.12 456.00,1697.50 460.00,1696.38
             461.41,1692.99 463.18,1690.56 466.38,1692.75
             464.75,1686.75 464.29,1676.44 466.38,1674.00
             467.95,1672.16 470.80,1669.36 473.25,1669.00
             475.76,1668.64 482.62,1670.00 485.12,1670.25
             487.24,1668.64 487.62,1664.50 489.00,1661.25
             490.38,1658.00 491.00,1655.25 491.88,1652.88
             487.86,1650.63 488.33,1648.09 489.62,1642.75
             491.12,1636.58 493.84,1641.93 495.75,1635.50
             495.75,1635.50 495.88,1629.00 496.88,1624.25
             500.12,1616.88 503.05,1602.94 502.50,1606.25
             502.50,1606.25 504.38,1592.38 504.38,1592.38
             504.38,1592.38 504.12,1589.12 509.12,1589.00
             510.25,1584.88 510.15,1585.04 510.25,1582.50
             510.47,1576.97 512.38,1554.25 512.38,1554.25
             512.38,1554.25 513.29,1547.04 513.29,1547.04
             513.06,1544.39 512.09,1543.15 509.88,1541.75
             508.01,1540.57 486.27,1525.06 480.00,1520.25
             480.00,1520.25 471.38,1511.62 471.38,1511.62
             469.27,1509.83 467.88,1508.75 457.62,1500.88
             453.62,1506.38 451.62,1511.88 449.25,1517.75
             445.00,1525.50 443.38,1534.00 439.00,1542.38
             436.48,1546.40 436.57,1547.15 434.12,1553.75
             434.12,1553.75 431.38,1563.00 431.38,1563.00
             430.34,1564.94 430.16,1568.14 428.00,1570.62
             426.26,1572.62 423.14,1574.90 421.25,1576.62
             417.88,1580.00 415.00,1583.88 414.00,1587.25
             409.12,1587.50 409.38,1587.00 401.50,1584.62
             401.50,1584.62 391.50,1578.75 391.50,1578.75
             391.50,1578.75 378.75,1572.75 378.75,1572.75
             372.62,1569.71 374.38,1569.88 366.50,1567.88
             365.44,1566.90 364.88,1565.75 364.00,1564.00
             360.75,1563.75 350.14,1564.76 345.00,1565.38
             345.00,1565.38 330.62,1567.12 330.62,1567.12
             330.62,1567.12 318.00,1568.74 318.00,1568.74
             318.00,1568.74 309.12,1568.75 305.25,1568.38
             301.38,1568.00 284.20,1567.88 281.00,1567.88
             272.30,1567.86 267.02,1566.68 258.38,1565.50
             258.38,1565.50 249.00,1564.10 249.00,1564.10
             237.85,1563.07 233.82,1562.40 222.88,1559.88
             222.88,1559.88 207.00,1557.43 207.00,1557.43
             207.00,1557.43 199.62,1556.25 199.62,1556.25
             199.62,1556.25 188.88,1554.75 188.88,1554.75
             188.88,1554.75 172.75,1552.75 172.75,1552.75
             172.75,1552.75 155.25,1551.50 155.25,1551.50
             151.31,1551.68 142.85,1551.03 139.50,1550.50
             128.38,1548.88 110.12,1543.75 105.38,1542.62
             100.62,1541.50 99.09,1539.93 93.62,1537.00
             85.14,1532.45 74.33,1526.48 68.75,1518.50
             66.09,1514.70 63.95,1514.40 61.88,1510.25
             61.88,1510.25 52.00,1491.12 52.00,1491.12
             50.75,1487.75 50.62,1486.25 49.00,1481.62
             46.67,1472.54 46.14,1471.77 46.12,1462.12
             46.12,1462.12 46.75,1450.62 46.75,1450.62
             46.78,1436.86 52.71,1423.52 59.61,1412.00
             59.61,1412.00 70.12,1396.25 70.12,1396.25
             75.66,1388.99 81.71,1383.41 88.38,1376.75
             88.38,1376.75 121.12,1347.38 121.12,1347.38
             121.12,1347.38 130.00,1340.78 130.00,1340.78
             130.00,1340.78 153.00,1324.38 153.00,1324.38
             153.00,1324.38 171.00,1311.95 171.00,1311.95
             171.00,1311.95 209.00,1289.23 209.00,1289.23
             214.95,1285.98 233.60,1275.49 238.00,1273.39
             238.00,1273.39 267.00,1259.20 267.00,1259.20
             288.05,1248.66 309.74,1239.45 332.00,1231.79
             332.00,1231.79 340.50,1229.00 340.50,1229.00
             340.50,1229.00 349.00,1226.44 349.00,1226.44
             349.00,1226.44 364.00,1221.74 364.00,1221.74
             364.00,1221.74 389.00,1214.32 389.00,1214.32
             392.21,1213.13 402.10,1210.43 404.75,1208.75
             405.12,1205.00 405.78,1199.52 407.72,1195.00
             407.72,1195.00 415.14,1181.00 415.14,1181.00
             415.14,1181.00 426.26,1158.00 426.26,1158.00
             426.26,1158.00 437.91,1140.00 437.91,1140.00
             437.91,1140.00 442.01,1133.00 442.01,1133.00
             442.01,1133.00 448.04,1125.00 448.04,1125.00
             448.04,1125.00 459.38,1104.00 459.38,1104.00
             459.38,1104.00 465.69,1095.00 465.69,1095.00
             465.69,1095.00 468.39,1087.00 468.39,1087.00
             468.39,1087.00 478.39,1070.00 478.39,1070.00
             478.39,1070.00 481.99,1063.00 481.99,1063.00
             481.99,1063.00 486.10,1057.00 486.10,1057.00
             486.10,1057.00 495.88,1038.00 495.88,1038.00
             495.88,1038.00 503.26,1026.00 503.26,1026.00
             503.26,1026.00 508.79,1015.09 508.79,1015.09
             508.79,1015.09 517.33,1003.00 517.33,1003.00
             517.33,1003.00 527.25,993.00 527.25,993.00
             527.25,993.00 533.25,981.75 533.25,981.75
             536.06,977.83 541.91,969.86 543.56,967.82
             545.48,965.43 545.39,963.41 546.84,961.55
             549.44,958.24 548.75,955.00 551.75,949.50
             551.75,949.50 563.59,925.07 567.66,920.00
             570.51,916.45 570.54,914.85 572.54,912.00
             572.54,912.00 580.06,903.00 580.06,903.00
             586.27,894.26 579.41,896.03 589.82,885.45
             586.91,881.45 588.56,880.10 588.60,876.00
             588.63,873.02 586.10,872.20 584.00,870.36
             584.00,870.36 576.73,865.45 576.73,865.45
             576.73,865.45 561.82,849.27 561.82,849.27
             557.53,845.77 557.80,842.93 554.91,840.55
             554.91,840.55 542.18,826.91 542.18,826.91
             542.18,826.91 529.27,814.36 529.27,814.36
             527.03,811.27 524.51,808.61 518.55,800.00
             514.92,794.77 509.71,792.45 505.27,788.00
             505.27,788.00 486.91,767.45 486.91,767.45
             486.91,767.45 472.00,752.91 472.00,752.91
             457.44,736.29 458.15,734.68 446.91,717.82
             446.91,717.82 433.45,697.45 433.45,697.45
             433.45,697.45 429.64,687.82 429.64,687.82
             429.64,687.82 419.09,667.64 419.09,667.64
             415.36,660.03 407.27,638.55 404.91,632.36
             404.91,632.36 386.00,600.73 386.00,600.73
             386.00,600.73 380.91,589.64 380.91,589.64
             378.86,584.27 377.67,580.41 374.73,574.91
             371.34,568.57 364.64,555.80 363.27,552.36
             361.22,547.21 359.77,546.98 358.73,542.18
             357.30,535.60 350.20,525.53 347.09,518.91
             345.09,512.36 344.73,513.09 342.00,506.18
             340.53,502.45 336.91,491.09 335.09,480.73
             332.54,472.37 329.36,465.96 328.62,463.01
             328.62,463.01 324.01,452.46 322.36,447.00
             321.26,441.78 322.80,438.85 322.36,434.00
             322.36,434.00 322.36,422.00 322.36,422.00
             321.87,414.22 320.03,416.39 320.00,404.00
             320.00,401.97 322.87,400.13 322.73,398.91
             321.07,396.38 314.66,391.66 309.88,385.50
             304.62,380.12 303.38,374.62 303.50,370.38
             303.50,370.38 303.55,353.00 303.55,353.00
             303.66,349.04 309.37,340.79 313.88,338.88
             314.38,334.75 316.77,328.20 319.38,325.38
             323.45,320.94 327.50,319.62 331.26,316.89
             331.62,312.25 331.89,310.65 332.62,305.50
             332.89,303.75 339.72,297.61 341.75,295.75
             346.25,293.75 356.38,294.12 356.38,294.12
             359.33,293.64 359.88,293.12 361.62,292.12
             361.00,287.50 358.86,277.47 357.00,273.50
             355.75,267.38 345.25,252.50 342.38,246.50
             340.75,237.88 344.50,233.25 347.00,230.62 Z" />
    <path id="leg" class="top-layer" d="M 456.00,1500.67
           C 456.00,1500.67 424.00,1475.50 422.00,1469.50
             424.00,1459.50 458.50,1397.50 458.50,1397.50
             458.50,1397.50 472.00,1329.27 472.00,1329.27
             472.00,1329.27 483.09,1282.91 483.09,1282.91
             483.09,1282.91 492.50,1245.00 492.50,1245.00
             492.50,1245.00 482.73,1212.91 482.73,1212.91
             477.40,1179.99 478.65,1181.56 479.45,1160.91
             483.45,1149.64 481.01,1141.73 480.67,1122.00
             483.48,1108.29 502.03,1068.42 518.00,1056.50
             533.00,1043.00 567.33,1018.00 616.67,1032.00
             654.00,1044.67 695.33,1081.33 695.33,1082.00
             695.33,1082.67 861.33,1234.00 861.33,1235.33M 689.00,1274.00
           C 689.00,1274.00 689.33,1343.33 689.33,1343.33
             689.33,1343.33 667.33,1460.67 667.33,1460.67
             667.33,1460.67 664.50,1479.50 664.50,1479.50
             664.50,1479.50 662.00,1494.00 662.00,1494.00
             662.00,1494.00 647.00,1540.00 647.00,1540.00
             647.00,1540.00 632.50,1575.00 632.50,1575.00
             632.50,1575.00 621.00,1609.00 621.00,1609.00
             621.00,1609.00 613.00,1648.00 613.00,1648.00" />

    <path id="foot" class="top-layer" d="M 694.00,1487.18
           C 694.00,1487.18 664.50,1479.00 664.50,1479.00" />


  </symbol>
  <use href="#logo" class="shadow" opacity="0.2" x="5.0%" y="-6%" />
  <use href="#logo" class="shadow" opacity="0.6" x="4.0%" y="-5%" />
  <use href="#logo" class="main" x="3.0%" y="-4%" />

</svg>